<svg xmlns="http://www.w3.org/2000/svg" xmlns:xlink="http://www.w3.org/1999/xlink" width="180" zoomAndPan="magnify" viewBox="0 0 135 37.5" height="50" preserveAspectRatio="xMidYMid meet" version="1.0"><defs><g/><clipPath id="9beb6d0c4a"><path d="M 0.886719 0 L 134.109375 0 L 134.109375 37.007812 L 0.886719 37.007812 Z M 0.886719 0 " clip-rule="nonzero"/></clipPath><clipPath id="dfc3c2428a"><path d="M 109 4 L 133 4 L 133 30 L 109 30 Z M 109 4 " clip-rule="nonzero"/></clipPath><clipPath id="e3b8abe489"><path d="M 109.734375 3.699219 L 132.667969 4.398438 L 131.878906 30.292969 L 108.945312 29.59375 Z M 109.734375 3.699219 " clip-rule="nonzero"/></clipPath><clipPath id="fb17b4ffa1"><path d="M 109.734375 3.699219 L 132.667969 4.398438 L 131.878906 30.292969 L 108.945312 29.59375 Z M 109.734375 3.699219 " clip-rule="nonzero"/></clipPath><clipPath id="4936ba437e"><path d="M 109.734375 3.703125 L 132.703125 4.402344 L 131.910156 30.40625 L 108.941406 29.707031 Z M 109.734375 3.703125 " clip-rule="nonzero"/></clipPath></defs><g clip-path="url(#9beb6d0c4a)"><path fill="#ffffff" d="M 0.886719 0 L 134.113281 0 L 134.113281 37.007812 L 0.886719 37.007812 Z M 0.886719 0 " fill-opacity="1" fill-rule="nonzero"/><path fill="#ffffff" d="M 0.886719 0 L 134.113281 0 L 134.113281 37.007812 L 0.886719 37.007812 Z M 0.886719 0 " fill-opacity="1" fill-rule="nonzero"/></g><g clip-path="url(#dfc3c2428a)"><g clip-path="url(#e3b8abe489)"><g clip-path="url(#fb17b4ffa1)"><g clip-path="url(#4936ba437e)"><path fill="#27211d" d="M 118.933594 24.890625 C 118.464844 24.882812 118.046875 25.207031 117.941406 25.679688 C 117.824219 26.21875 118.167969 26.753906 118.707031 26.871094 C 119.25 26.988281 119.78125 26.644531 119.898438 26.105469 C 120.015625 25.5625 119.675781 25.03125 119.132812 24.914062 C 119.066406 24.898438 119 24.890625 118.933594 24.890625 Z M 110.933594 23.375 L 111.578125 23.722656 L 111.550781 23.773438 C 111.234375 24.46875 111.179688 25.289062 111.46875 26.0625 C 111.757812 26.839844 112.332031 27.425781 113.03125 27.742188 L 113.082031 27.761719 L 112.824219 28.449219 L 112.726562 28.410156 C 111.859375 28.011719 111.144531 27.285156 110.78125 26.320312 C 110.421875 25.355469 110.488281 24.335938 110.886719 23.46875 Z M 109.648438 22.683594 L 110.285156 23.027344 L 110.214844 23.164062 C 109.742188 24.203125 109.664062 25.421875 110.09375 26.578125 C 110.523438 27.730469 111.382812 28.601562 112.421875 29.078125 L 112.5625 29.132812 L 112.304688 29.808594 L 112.121094 29.734375 C 110.914062 29.183594 109.917969 28.171875 109.414062 26.828125 C 108.914062 25.488281 109.007812 24.070312 109.558594 22.863281 Z M 117.695312 7.890625 L 114.359375 23.242188 L 124.171875 25.375 L 127.507812 10.019531 Z M 123.054688 7.472656 C 122.847656 7.429688 122.644531 7.558594 122.601562 7.765625 C 122.554688 7.972656 122.6875 8.175781 122.894531 8.21875 L 123.140625 8.273438 C 123.347656 8.320312 123.550781 8.1875 123.597656 7.980469 C 123.640625 7.777344 123.511719 7.570312 123.304688 7.527344 Z M 118.578125 6.472656 C 118.371094 6.429688 118.167969 6.5625 118.125 6.765625 C 118.078125 6.972656 118.210938 7.175781 118.417969 7.222656 L 121.652344 7.925781 C 121.859375 7.96875 122.0625 7.839844 122.109375 7.632812 C 122.152344 7.425781 122.023438 7.222656 121.816406 7.179688 Z M 117.96875 5.710938 C 118.0625 5.710938 118.15625 5.722656 118.25 5.742188 L 127.894531 7.835938 C 128.640625 8 129.113281 8.734375 128.953125 9.484375 L 125.0625 27.382812 C 124.902344 28.128906 124.164062 28.601562 123.417969 28.441406 L 113.773438 26.34375 C 113.027344 26.183594 112.550781 25.445312 112.714844 24.699219 L 116.601562 6.800781 C 116.742188 6.144531 117.324219 5.703125 117.96875 5.710938 Z M 128.820312 5.660156 L 128.917969 5.699219 C 129.785156 6.097656 130.5 6.824219 130.859375 7.789062 C 131.222656 8.753906 131.15625 9.773438 130.757812 10.640625 L 130.710938 10.734375 L 130.066406 10.386719 L 130.09375 10.335938 C 130.410156 9.636719 130.464844 8.820312 130.175781 8.042969 C 129.886719 7.269531 129.308594 6.683594 128.613281 6.367188 L 128.558594 6.34375 Z M 129.339844 4.296875 L 129.523438 4.371094 C 130.730469 4.925781 131.726562 5.9375 132.230469 7.277344 C 132.730469 8.621094 132.636719 10.039062 132.085938 11.246094 L 131.996094 11.425781 L 131.359375 11.082031 L 131.425781 10.945312 C 131.902344 9.90625 131.980469 8.6875 131.550781 7.53125 C 131.121094 6.378906 130.261719 5.507812 129.222656 5.03125 L 129.082031 4.976562 Z M 129.339844 4.296875 " fill-opacity="1" fill-rule="evenodd"/></g></g></g></g><g fill="#000000" fill-opacity="1"><g transform="translate(7.885669, 23.563397)"><g><path d="M 8.578125 -4.59375 C 8.578125 -4.3125 8.550781 -3.960938 8.5 -3.546875 C 8.445312 -3.128906 8.347656 -2.707031 8.203125 -2.28125 C 7.953125 -1.539062 7.566406 -0.957031 7.046875 -0.53125 C 6.535156 -0.101562 5.882812 0.148438 5.09375 0.234375 C 4.738281 0.273438 4.378906 0.285156 4.015625 0.265625 C 3.660156 0.242188 3.304688 0.1875 2.953125 0.09375 C 2.359375 -0.0625 1.867188 -0.332031 1.484375 -0.71875 C 1.097656 -1.101562 0.816406 -1.585938 0.640625 -2.171875 C 0.453125 -2.773438 0.335938 -3.382812 0.296875 -4 C 0.253906 -4.613281 0.253906 -5.234375 0.296875 -5.859375 C 0.328125 -6.273438 0.382812 -6.6875 0.46875 -7.09375 C 0.550781 -7.5 0.679688 -7.898438 0.859375 -8.296875 C 1.398438 -9.484375 2.335938 -10.164062 3.671875 -10.34375 C 4.078125 -10.394531 4.476562 -10.40625 4.875 -10.375 C 5.28125 -10.34375 5.679688 -10.25 6.078125 -10.09375 C 6.585938 -9.882812 7.007812 -9.585938 7.34375 -9.203125 C 7.6875 -8.816406 7.953125 -8.367188 8.140625 -7.859375 C 8.304688 -7.378906 8.421875 -6.878906 8.484375 -6.359375 C 8.546875 -5.847656 8.578125 -5.257812 8.578125 -4.59375 Z M 5.015625 -4.890625 C 4.984375 -5.148438 4.957031 -5.410156 4.9375 -5.671875 C 4.925781 -5.929688 4.90625 -6.179688 4.875 -6.421875 C 4.8125 -6.847656 4.628906 -7.066406 4.328125 -7.078125 C 4.179688 -7.078125 4.054688 -7.03125 3.953125 -6.9375 C 3.859375 -6.84375 3.789062 -6.691406 3.75 -6.484375 C 3.65625 -6.085938 3.609375 -5.691406 3.609375 -5.296875 C 3.609375 -4.898438 3.617188 -4.503906 3.640625 -4.109375 C 3.660156 -3.796875 3.726562 -3.488281 3.84375 -3.1875 C 3.925781 -3.007812 4.054688 -2.910156 4.234375 -2.890625 C 4.410156 -2.878906 4.554688 -2.953125 4.671875 -3.109375 C 4.773438 -3.210938 4.835938 -3.335938 4.859375 -3.484375 C 4.898438 -3.722656 4.925781 -3.960938 4.9375 -4.203125 C 4.957031 -4.441406 4.984375 -4.671875 5.015625 -4.890625 Z M 5.015625 -4.890625 "/></g></g></g><g fill="#000000" fill-opacity="1"><g transform="translate(16.869087, 23.563397)"><g><path d="M 3.015625 -6.546875 C 2.859375 -6.492188 2.71875 -6.441406 2.59375 -6.390625 C 2.46875 -6.335938 2.332031 -6.28125 2.1875 -6.21875 C 2.050781 -6.164062 1.867188 -6.101562 1.640625 -6.03125 C 1.367188 -6.070312 1.125 -6.179688 0.90625 -6.359375 C 0.6875 -6.546875 0.507812 -6.765625 0.375 -7.015625 C 0.25 -7.273438 0.191406 -7.546875 0.203125 -7.828125 C 0.210938 -8.117188 0.300781 -8.390625 0.46875 -8.640625 C 0.644531 -8.898438 0.921875 -9.113281 1.296875 -9.28125 C 1.554688 -9.40625 1.828125 -9.519531 2.109375 -9.625 C 2.398438 -9.738281 2.679688 -9.847656 2.953125 -9.953125 C 3.234375 -10.054688 3.476562 -10.144531 3.6875 -10.21875 C 3.90625 -10.289062 4.066406 -10.34375 4.171875 -10.375 C 4.410156 -10.445312 4.660156 -10.476562 4.921875 -10.46875 C 5.191406 -10.457031 5.453125 -10.394531 5.703125 -10.28125 C 5.953125 -10.175781 6.15625 -10.015625 6.3125 -9.796875 C 6.46875 -9.585938 6.546875 -9.3125 6.546875 -8.96875 C 6.546875 -7.53125 6.523438 -6.09375 6.484375 -4.65625 C 6.453125 -3.226562 6.445312 -1.800781 6.46875 -0.375 C 6.070312 -0.0703125 5.664062 0.109375 5.25 0.171875 C 4.832031 0.242188 4.445312 0.21875 4.09375 0.09375 C 3.75 -0.03125 3.46875 -0.226562 3.25 -0.5 C 3.03125 -0.769531 2.910156 -1.09375 2.890625 -1.46875 C 2.867188 -1.84375 2.863281 -2.257812 2.875 -2.71875 C 2.882812 -3.1875 2.898438 -3.65625 2.921875 -4.125 C 2.941406 -4.59375 2.960938 -5.035156 2.984375 -5.453125 C 3.003906 -5.867188 3.015625 -6.210938 3.015625 -6.484375 C 3.015625 -6.503906 3.015625 -6.523438 3.015625 -6.546875 Z M 3.015625 -6.546875 "/></g></g></g><g fill="#000000" fill-opacity="1"><g transform="translate(23.824318, 23.563397)"><g><path d="M 3.015625 -6.546875 C 2.859375 -6.492188 2.71875 -6.441406 2.59375 -6.390625 C 2.46875 -6.335938 2.332031 -6.28125 2.1875 -6.21875 C 2.050781 -6.164062 1.867188 -6.101562 1.640625 -6.03125 C 1.367188 -6.070312 1.125 -6.179688 0.90625 -6.359375 C 0.6875 -6.546875 0.507812 -6.765625 0.375 -7.015625 C 0.25 -7.273438 0.191406 -7.546875 0.203125 -7.828125 C 0.210938 -8.117188 0.300781 -8.390625 0.46875 -8.640625 C 0.644531 -8.898438 0.921875 -9.113281 1.296875 -9.28125 C 1.554688 -9.40625 1.828125 -9.519531 2.109375 -9.625 C 2.398438 -9.738281 2.679688 -9.847656 2.953125 -9.953125 C 3.234375 -10.054688 3.476562 -10.144531 3.6875 -10.21875 C 3.90625 -10.289062 4.066406 -10.34375 4.171875 -10.375 C 4.410156 -10.445312 4.660156 -10.476562 4.921875 -10.46875 C 5.191406 -10.457031 5.453125 -10.394531 5.703125 -10.28125 C 5.953125 -10.175781 6.15625 -10.015625 6.3125 -9.796875 C 6.46875 -9.585938 6.546875 -9.3125 6.546875 -8.96875 C 6.546875 -7.53125 6.523438 -6.09375 6.484375 -4.65625 C 6.453125 -3.226562 6.445312 -1.800781 6.46875 -0.375 C 6.070312 -0.0703125 5.664062 0.109375 5.25 0.171875 C 4.832031 0.242188 4.445312 0.21875 4.09375 0.09375 C 3.75 -0.03125 3.46875 -0.226562 3.25 -0.5 C 3.03125 -0.769531 2.910156 -1.09375 2.890625 -1.46875 C 2.867188 -1.84375 2.863281 -2.257812 2.875 -2.71875 C 2.882812 -3.1875 2.898438 -3.65625 2.921875 -4.125 C 2.941406 -4.59375 2.960938 -5.035156 2.984375 -5.453125 C 3.003906 -5.867188 3.015625 -6.210938 3.015625 -6.484375 C 3.015625 -6.503906 3.015625 -6.523438 3.015625 -6.546875 Z M 3.015625 -6.546875 "/></g></g></g><g fill="#000000" fill-opacity="1"><g transform="translate(30.779548, 23.563397)"><g><path d="M 2.421875 -6.421875 C 2.671875 -6.460938 2.988281 -6.488281 3.375 -6.5 C 3.757812 -6.519531 4.179688 -6.53125 4.640625 -6.53125 C 5.097656 -6.53125 5.566406 -6.519531 6.046875 -6.5 C 6.535156 -6.488281 7.003906 -6.460938 7.453125 -6.421875 C 7.898438 -6.390625 8.300781 -6.351562 8.65625 -6.3125 C 8.851562 -6.132812 8.988281 -5.910156 9.0625 -5.640625 C 9.144531 -5.367188 9.164062 -5.082031 9.125 -4.78125 C 9.09375 -4.476562 8.988281 -4.179688 8.8125 -3.890625 C 8.644531 -3.609375 8.40625 -3.359375 8.09375 -3.140625 C 7.78125 -2.921875 7.382812 -2.757812 6.90625 -2.65625 C 6.75 -2.632812 6.519531 -2.609375 6.21875 -2.578125 C 5.914062 -2.554688 5.566406 -2.535156 5.171875 -2.515625 C 4.785156 -2.492188 4.378906 -2.484375 3.953125 -2.484375 C 3.523438 -2.484375 3.109375 -2.488281 2.703125 -2.5 C 2.296875 -2.507812 1.921875 -2.53125 1.578125 -2.5625 C 1.242188 -2.601562 0.96875 -2.648438 0.75 -2.703125 C 0.582031 -2.898438 0.453125 -3.140625 0.359375 -3.421875 C 0.265625 -3.703125 0.222656 -4 0.234375 -4.3125 C 0.253906 -4.632812 0.335938 -4.9375 0.484375 -5.21875 C 0.640625 -5.507812 0.875 -5.765625 1.1875 -5.984375 C 1.5 -6.203125 1.910156 -6.347656 2.421875 -6.421875 Z M 2.421875 -6.421875 "/></g></g></g><g fill="#000000" fill-opacity="1"><g transform="translate(40.14197, 23.563397)"><g><path d="M 3.75 -7 C 3.269531 -7 2.789062 -7 2.3125 -7 C 1.832031 -7 1.351562 -6.992188 0.875 -6.984375 C 0.664062 -7.140625 0.503906 -7.347656 0.390625 -7.609375 C 0.273438 -7.867188 0.210938 -8.144531 0.203125 -8.4375 C 0.191406 -8.738281 0.238281 -9.023438 0.34375 -9.296875 C 0.445312 -9.566406 0.613281 -9.785156 0.84375 -9.953125 C 1.070312 -10.128906 1.367188 -10.21875 1.734375 -10.21875 C 2.273438 -10.226562 2.773438 -10.226562 3.234375 -10.21875 C 3.703125 -10.21875 4.160156 -10.21875 4.609375 -10.21875 C 5.066406 -10.21875 5.550781 -10.21875 6.0625 -10.21875 C 6.425781 -10.21875 6.734375 -10.09375 6.984375 -9.84375 C 7.242188 -9.59375 7.414062 -9.253906 7.5 -8.828125 C 7.582031 -8.398438 7.539062 -7.914062 7.375 -7.375 C 7.164062 -6.6875 6.921875 -5.941406 6.640625 -5.140625 C 6.359375 -4.335938 6.046875 -3.503906 5.703125 -2.640625 C 5.359375 -1.785156 4.976562 -0.929688 4.5625 -0.078125 C 4.300781 0.0664062 4 0.144531 3.65625 0.15625 C 3.320312 0.175781 3 0.132812 2.6875 0.03125 C 2.375 -0.0703125 2.109375 -0.238281 1.890625 -0.46875 C 1.671875 -0.707031 1.535156 -1.015625 1.484375 -1.390625 C 1.429688 -1.765625 1.515625 -2.203125 1.734375 -2.703125 C 1.835938 -2.953125 1.96875 -3.25 2.125 -3.59375 C 2.28125 -3.945312 2.445312 -4.320312 2.625 -4.71875 C 2.8125 -5.113281 3 -5.503906 3.1875 -5.890625 C 3.382812 -6.285156 3.570312 -6.65625 3.75 -7 Z M 3.75 -7 "/></g></g></g><g fill="#000000" fill-opacity="1"><g transform="translate(48.019106, 23.563397)"><g><path d="M 4 -3.75 C 3.894531 -3.726562 3.789062 -3.703125 3.6875 -3.671875 C 3.582031 -3.648438 3.484375 -3.632812 3.390625 -3.625 C 2.921875 -3.570312 2.484375 -3.625 2.078125 -3.78125 C 1.671875 -3.945312 1.320312 -4.195312 1.03125 -4.53125 C 0.75 -4.863281 0.554688 -5.257812 0.453125 -5.71875 C 0.367188 -6.050781 0.320312 -6.382812 0.3125 -6.71875 C 0.3125 -7.0625 0.351562 -7.410156 0.4375 -7.765625 C 0.550781 -8.285156 0.757812 -8.726562 1.0625 -9.09375 C 1.375 -9.457031 1.773438 -9.738281 2.265625 -9.9375 C 2.816406 -10.175781 3.367188 -10.3125 3.921875 -10.34375 C 4.484375 -10.375 5.046875 -10.28125 5.609375 -10.0625 C 6.359375 -9.78125 6.929688 -9.367188 7.328125 -8.828125 C 7.722656 -8.285156 7.96875 -7.628906 8.0625 -6.859375 C 8.175781 -6.003906 8.113281 -5.1875 7.875 -4.40625 C 7.632812 -3.632812 7.269531 -2.898438 6.78125 -2.203125 C 6.507812 -1.804688 6.1875 -1.40625 5.8125 -1 C 5.4375 -0.59375 5.046875 -0.242188 4.640625 0.046875 C 4.265625 0.160156 3.914062 0.191406 3.59375 0.140625 C 3.28125 0.0859375 3.015625 -0.0234375 2.796875 -0.203125 C 2.578125 -0.390625 2.425781 -0.613281 2.34375 -0.875 C 2.257812 -1.144531 2.257812 -1.425781 2.34375 -1.71875 C 2.4375 -2.019531 2.628906 -2.3125 2.921875 -2.59375 C 3.117188 -2.769531 3.269531 -2.90625 3.375 -3 C 3.488281 -3.101562 3.585938 -3.207031 3.671875 -3.3125 C 3.765625 -3.425781 3.875 -3.570312 4 -3.75 Z M 4.828125 -6.75 C 4.828125 -7.007812 4.765625 -7.210938 4.640625 -7.359375 C 4.515625 -7.503906 4.335938 -7.578125 4.109375 -7.578125 C 3.878906 -7.578125 3.691406 -7.503906 3.546875 -7.359375 C 3.410156 -7.210938 3.34375 -7.019531 3.34375 -6.78125 C 3.34375 -6.53125 3.410156 -6.328125 3.546875 -6.171875 C 3.679688 -6.015625 3.851562 -5.9375 4.0625 -5.9375 C 4.289062 -5.925781 4.472656 -6 4.609375 -6.15625 C 4.753906 -6.3125 4.828125 -6.507812 4.828125 -6.75 Z M 4.828125 -6.75 "/></g></g></g><g fill="#000000" fill-opacity="1"><g transform="translate(56.541571, 23.563397)"><g><path d="M 8.578125 -4.59375 C 8.578125 -4.3125 8.550781 -3.960938 8.5 -3.546875 C 8.445312 -3.128906 8.347656 -2.707031 8.203125 -2.28125 C 7.953125 -1.539062 7.566406 -0.957031 7.046875 -0.53125 C 6.535156 -0.101562 5.882812 0.148438 5.09375 0.234375 C 4.738281 0.273438 4.378906 0.285156 4.015625 0.265625 C 3.660156 0.242188 3.304688 0.1875 2.953125 0.09375 C 2.359375 -0.0625 1.867188 -0.332031 1.484375 -0.71875 C 1.097656 -1.101562 0.816406 -1.585938 0.640625 -2.171875 C 0.453125 -2.773438 0.335938 -3.382812 0.296875 -4 C 0.253906 -4.613281 0.253906 -5.234375 0.296875 -5.859375 C 0.328125 -6.273438 0.382812 -6.6875 0.46875 -7.09375 C 0.550781 -7.5 0.679688 -7.898438 0.859375 -8.296875 C 1.398438 -9.484375 2.335938 -10.164062 3.671875 -10.34375 C 4.078125 -10.394531 4.476562 -10.40625 4.875 -10.375 C 5.28125 -10.34375 5.679688 -10.25 6.078125 -10.09375 C 6.585938 -9.882812 7.007812 -9.585938 7.34375 -9.203125 C 7.6875 -8.816406 7.953125 -8.367188 8.140625 -7.859375 C 8.304688 -7.378906 8.421875 -6.878906 8.484375 -6.359375 C 8.546875 -5.847656 8.578125 -5.257812 8.578125 -4.59375 Z M 5.015625 -4.890625 C 4.984375 -5.148438 4.957031 -5.410156 4.9375 -5.671875 C 4.925781 -5.929688 4.90625 -6.179688 4.875 -6.421875 C 4.8125 -6.847656 4.628906 -7.066406 4.328125 -7.078125 C 4.179688 -7.078125 4.054688 -7.03125 3.953125 -6.9375 C 3.859375 -6.84375 3.789062 -6.691406 3.75 -6.484375 C 3.65625 -6.085938 3.609375 -5.691406 3.609375 -5.296875 C 3.609375 -4.898438 3.617188 -4.503906 3.640625 -4.109375 C 3.660156 -3.796875 3.726562 -3.488281 3.84375 -3.1875 C 3.925781 -3.007812 4.054688 -2.910156 4.234375 -2.890625 C 4.410156 -2.878906 4.554688 -2.953125 4.671875 -3.109375 C 4.773438 -3.210938 4.835938 -3.335938 4.859375 -3.484375 C 4.898438 -3.722656 4.925781 -3.960938 4.9375 -4.203125 C 4.957031 -4.441406 4.984375 -4.671875 5.015625 -4.890625 Z M 5.015625 -4.890625 "/></g></g></g><g fill="#000000" fill-opacity="1"><g transform="translate(65.524989, 23.563397)"><g><path d="M 2.421875 -6.421875 C 2.671875 -6.460938 2.988281 -6.488281 3.375 -6.5 C 3.757812 -6.519531 4.179688 -6.53125 4.640625 -6.53125 C 5.097656 -6.53125 5.566406 -6.519531 6.046875 -6.5 C 6.535156 -6.488281 7.003906 -6.460938 7.453125 -6.421875 C 7.898438 -6.390625 8.300781 -6.351562 8.65625 -6.3125 C 8.851562 -6.132812 8.988281 -5.910156 9.0625 -5.640625 C 9.144531 -5.367188 9.164062 -5.082031 9.125 -4.78125 C 9.09375 -4.476562 8.988281 -4.179688 8.8125 -3.890625 C 8.644531 -3.609375 8.40625 -3.359375 8.09375 -3.140625 C 7.78125 -2.921875 7.382812 -2.757812 6.90625 -2.65625 C 6.75 -2.632812 6.519531 -2.609375 6.21875 -2.578125 C 5.914062 -2.554688 5.566406 -2.535156 5.171875 -2.515625 C 4.785156 -2.492188 4.378906 -2.484375 3.953125 -2.484375 C 3.523438 -2.484375 3.109375 -2.488281 2.703125 -2.5 C 2.296875 -2.507812 1.921875 -2.53125 1.578125 -2.5625 C 1.242188 -2.601562 0.96875 -2.648438 0.75 -2.703125 C 0.582031 -2.898438 0.453125 -3.140625 0.359375 -3.421875 C 0.265625 -3.703125 0.222656 -4 0.234375 -4.3125 C 0.253906 -4.632812 0.335938 -4.9375 0.484375 -5.21875 C 0.640625 -5.507812 0.875 -5.765625 1.1875 -5.984375 C 1.5 -6.203125 1.910156 -6.347656 2.421875 -6.421875 Z M 2.421875 -6.421875 "/></g></g></g><g fill="#000000" fill-opacity="1"><g transform="translate(74.887411, 23.563397)"><g><path d="M 3.75 -7 C 3.269531 -7 2.789062 -7 2.3125 -7 C 1.832031 -7 1.351562 -6.992188 0.875 -6.984375 C 0.664062 -7.140625 0.503906 -7.347656 0.390625 -7.609375 C 0.273438 -7.867188 0.210938 -8.144531 0.203125 -8.4375 C 0.191406 -8.738281 0.238281 -9.023438 0.34375 -9.296875 C 0.445312 -9.566406 0.613281 -9.785156 0.84375 -9.953125 C 1.070312 -10.128906 1.367188 -10.21875 1.734375 -10.21875 C 2.273438 -10.226562 2.773438 -10.226562 3.234375 -10.21875 C 3.703125 -10.21875 4.160156 -10.21875 4.609375 -10.21875 C 5.066406 -10.21875 5.550781 -10.21875 6.0625 -10.21875 C 6.425781 -10.21875 6.734375 -10.09375 6.984375 -9.84375 C 7.242188 -9.59375 7.414062 -9.253906 7.5 -8.828125 C 7.582031 -8.398438 7.539062 -7.914062 7.375 -7.375 C 7.164062 -6.6875 6.921875 -5.941406 6.640625 -5.140625 C 6.359375 -4.335938 6.046875 -3.503906 5.703125 -2.640625 C 5.359375 -1.785156 4.976562 -0.929688 4.5625 -0.078125 C 4.300781 0.0664062 4 0.144531 3.65625 0.15625 C 3.320312 0.175781 3 0.132812 2.6875 0.03125 C 2.375 -0.0703125 2.109375 -0.238281 1.890625 -0.46875 C 1.671875 -0.707031 1.535156 -1.015625 1.484375 -1.390625 C 1.429688 -1.765625 1.515625 -2.203125 1.734375 -2.703125 C 1.835938 -2.953125 1.96875 -3.25 2.125 -3.59375 C 2.28125 -3.945312 2.445312 -4.320312 2.625 -4.71875 C 2.8125 -5.113281 3 -5.503906 3.1875 -5.890625 C 3.382812 -6.285156 3.570312 -6.65625 3.75 -7 Z M 3.75 -7 "/></g></g></g><g fill="#000000" fill-opacity="1"><g transform="translate(82.764547, 23.563397)"><g><path d="M 2.65625 -3.078125 C 2.8125 -3.015625 2.972656 -2.96875 3.140625 -2.9375 C 3.304688 -2.90625 3.476562 -2.898438 3.65625 -2.921875 C 3.832031 -2.941406 3.972656 -3 4.078125 -3.09375 C 4.179688 -3.195312 4.222656 -3.328125 4.203125 -3.484375 C 4.203125 -3.648438 4.144531 -3.785156 4.03125 -3.890625 C 3.914062 -4.003906 3.765625 -4.050781 3.578125 -4.03125 C 3.304688 -4 3.019531 -4.007812 2.71875 -4.0625 C 2.414062 -4.113281 2.128906 -4.210938 1.859375 -4.359375 C 1.597656 -4.503906 1.390625 -4.6875 1.234375 -4.90625 C 1.078125 -5.132812 1 -5.394531 1 -5.6875 C 1.019531 -6.25 1.054688 -6.882812 1.109375 -7.59375 C 1.160156 -8.300781 1.265625 -9.070312 1.421875 -9.90625 C 1.429688 -9.9375 1.441406 -9.96875 1.453125 -10 C 1.460938 -10.039062 1.472656 -10.082031 1.484375 -10.125 C 2.398438 -10.175781 3.3125 -10.21875 4.21875 -10.25 C 5.132812 -10.28125 6.050781 -10.285156 6.96875 -10.265625 C 7.113281 -10.160156 7.234375 -9.992188 7.328125 -9.765625 C 7.421875 -9.535156 7.472656 -9.28125 7.484375 -9 C 7.492188 -8.726562 7.453125 -8.460938 7.359375 -8.203125 C 7.273438 -7.953125 7.128906 -7.738281 6.921875 -7.5625 C 6.710938 -7.382812 6.429688 -7.285156 6.078125 -7.265625 C 5.742188 -7.242188 5.40625 -7.226562 5.0625 -7.21875 C 4.726562 -7.21875 4.394531 -7.210938 4.0625 -7.203125 C 4.050781 -7.097656 4.039062 -6.992188 4.03125 -6.890625 C 4.03125 -6.796875 4.03125 -6.691406 4.03125 -6.578125 C 4.175781 -6.585938 4.320312 -6.597656 4.46875 -6.609375 C 4.613281 -6.628906 4.765625 -6.640625 4.921875 -6.640625 C 5.734375 -6.648438 6.394531 -6.421875 6.90625 -5.953125 C 7.425781 -5.492188 7.726562 -4.851562 7.8125 -4.03125 C 7.851562 -3.59375 7.84375 -3.160156 7.78125 -2.734375 C 7.71875 -2.316406 7.578125 -1.914062 7.359375 -1.53125 C 7.171875 -1.21875 6.925781 -0.925781 6.625 -0.65625 C 6.320312 -0.394531 5.960938 -0.1875 5.546875 -0.03125 C 5.140625 0.125 4.675781 0.203125 4.15625 0.203125 C 3.375 0.203125 2.660156 0.113281 2.015625 -0.0625 C 1.378906 -0.25 0.859375 -0.515625 0.453125 -0.859375 C 0.328125 -1.117188 0.257812 -1.390625 0.25 -1.671875 C 0.25 -1.960938 0.300781 -2.234375 0.40625 -2.484375 C 0.507812 -2.734375 0.664062 -2.9375 0.875 -3.09375 C 1.082031 -3.25 1.335938 -3.332031 1.640625 -3.34375 C 1.941406 -3.363281 2.28125 -3.273438 2.65625 -3.078125 Z M 2.65625 -3.078125 "/></g></g></g><g fill="#000000" fill-opacity="1"><g transform="translate(90.989957, 23.563397)"><g><path d="M 2.65625 -3.078125 C 2.8125 -3.015625 2.972656 -2.96875 3.140625 -2.9375 C 3.304688 -2.90625 3.476562 -2.898438 3.65625 -2.921875 C 3.832031 -2.941406 3.972656 -3 4.078125 -3.09375 C 4.179688 -3.195312 4.222656 -3.328125 4.203125 -3.484375 C 4.203125 -3.648438 4.144531 -3.785156 4.03125 -3.890625 C 3.914062 -4.003906 3.765625 -4.050781 3.578125 -4.03125 C 3.304688 -4 3.019531 -4.007812 2.71875 -4.0625 C 2.414062 -4.113281 2.128906 -4.210938 1.859375 -4.359375 C 1.597656 -4.503906 1.390625 -4.6875 1.234375 -4.90625 C 1.078125 -5.132812 1 -5.394531 1 -5.6875 C 1.019531 -6.25 1.054688 -6.882812 1.109375 -7.59375 C 1.160156 -8.300781 1.265625 -9.070312 1.421875 -9.90625 C 1.429688 -9.9375 1.441406 -9.96875 1.453125 -10 C 1.460938 -10.039062 1.472656 -10.082031 1.484375 -10.125 C 2.398438 -10.175781 3.3125 -10.21875 4.21875 -10.25 C 5.132812 -10.28125 6.050781 -10.285156 6.96875 -10.265625 C 7.113281 -10.160156 7.234375 -9.992188 7.328125 -9.765625 C 7.421875 -9.535156 7.472656 -9.28125 7.484375 -9 C 7.492188 -8.726562 7.453125 -8.460938 7.359375 -8.203125 C 7.273438 -7.953125 7.128906 -7.738281 6.921875 -7.5625 C 6.710938 -7.382812 6.429688 -7.285156 6.078125 -7.265625 C 5.742188 -7.242188 5.40625 -7.226562 5.0625 -7.21875 C 4.726562 -7.21875 4.394531 -7.210938 4.0625 -7.203125 C 4.050781 -7.097656 4.039062 -6.992188 4.03125 -6.890625 C 4.03125 -6.796875 4.03125 -6.691406 4.03125 -6.578125 C 4.175781 -6.585938 4.320312 -6.597656 4.46875 -6.609375 C 4.613281 -6.628906 4.765625 -6.640625 4.921875 -6.640625 C 5.734375 -6.648438 6.394531 -6.421875 6.90625 -5.953125 C 7.425781 -5.492188 7.726562 -4.851562 7.8125 -4.03125 C 7.851562 -3.59375 7.84375 -3.160156 7.78125 -2.734375 C 7.71875 -2.316406 7.578125 -1.914062 7.359375 -1.53125 C 7.171875 -1.21875 6.925781 -0.925781 6.625 -0.65625 C 6.320312 -0.394531 5.960938 -0.1875 5.546875 -0.03125 C 5.140625 0.125 4.675781 0.203125 4.15625 0.203125 C 3.375 0.203125 2.660156 0.113281 2.015625 -0.0625 C 1.378906 -0.25 0.859375 -0.515625 0.453125 -0.859375 C 0.328125 -1.117188 0.257812 -1.390625 0.25 -1.671875 C 0.25 -1.960938 0.300781 -2.234375 0.40625 -2.484375 C 0.507812 -2.734375 0.664062 -2.9375 0.875 -3.09375 C 1.082031 -3.25 1.335938 -3.332031 1.640625 -3.34375 C 1.941406 -3.363281 2.28125 -3.273438 2.65625 -3.078125 Z M 2.65625 -3.078125 "/></g></g></g><g fill="#000000" fill-opacity="1"><g transform="translate(99.215373, 23.563397)"><g><path d="M 2.546875 -3.109375 C 2.828125 -2.972656 3.125 -2.894531 3.4375 -2.875 C 3.550781 -2.863281 3.644531 -2.867188 3.71875 -2.890625 C 4.0625 -2.929688 4.234375 -3.097656 4.234375 -3.390625 C 4.234375 -3.515625 4.191406 -3.617188 4.109375 -3.703125 C 4.023438 -3.796875 3.90625 -3.851562 3.75 -3.875 C 3.550781 -3.894531 3.347656 -3.90625 3.140625 -3.90625 C 2.941406 -3.90625 2.742188 -3.90625 2.546875 -3.90625 C 2.347656 -4.039062 2.191406 -4.21875 2.078125 -4.4375 C 1.972656 -4.65625 1.90625 -4.882812 1.875 -5.125 C 1.84375 -5.375 1.851562 -5.601562 1.90625 -5.8125 C 1.96875 -6.03125 2.070312 -6.203125 2.21875 -6.328125 C 2.375 -6.453125 2.566406 -6.515625 2.796875 -6.515625 C 2.878906 -6.515625 2.941406 -6.507812 2.984375 -6.5 C 3.035156 -6.5 3.082031 -6.492188 3.125 -6.484375 C 3.175781 -6.484375 3.25 -6.484375 3.34375 -6.484375 C 3.40625 -6.484375 3.46875 -6.488281 3.53125 -6.5 C 3.601562 -6.507812 3.675781 -6.519531 3.75 -6.53125 C 4.0625 -6.582031 4.21875 -6.734375 4.21875 -6.984375 C 4.207031 -7.085938 4.15625 -7.175781 4.0625 -7.25 C 3.976562 -7.332031 3.859375 -7.378906 3.703125 -7.390625 C 3.410156 -7.429688 3.101562 -7.375 2.78125 -7.21875 C 2.519531 -7.195312 2.28125 -7.257812 2.0625 -7.40625 C 1.84375 -7.550781 1.664062 -7.738281 1.53125 -7.96875 C 1.394531 -8.207031 1.316406 -8.457031 1.296875 -8.71875 C 1.273438 -8.988281 1.332031 -9.242188 1.46875 -9.484375 C 1.601562 -9.722656 1.832031 -9.914062 2.15625 -10.0625 C 2.832031 -10.363281 3.507812 -10.492188 4.1875 -10.453125 C 4.875 -10.421875 5.492188 -10.269531 6.046875 -10 C 6.535156 -9.78125 6.914062 -9.484375 7.1875 -9.109375 C 7.457031 -8.734375 7.601562 -8.273438 7.625 -7.734375 C 7.65625 -7.242188 7.582031 -6.796875 7.40625 -6.390625 C 7.226562 -5.984375 6.929688 -5.628906 6.515625 -5.328125 C 6.492188 -5.316406 6.472656 -5.300781 6.453125 -5.28125 C 6.441406 -5.269531 6.429688 -5.257812 6.421875 -5.25 C 6.421875 -5.238281 6.421875 -5.222656 6.421875 -5.203125 C 6.421875 -5.191406 6.421875 -5.179688 6.421875 -5.171875 C 6.742188 -5.054688 7.007812 -4.890625 7.21875 -4.671875 C 7.4375 -4.460938 7.601562 -4.195312 7.71875 -3.875 C 7.851562 -3.519531 7.90625 -3.144531 7.875 -2.75 C 7.851562 -2.363281 7.753906 -1.992188 7.578125 -1.640625 C 7.410156 -1.285156 7.179688 -0.988281 6.890625 -0.75 C 6.597656 -0.488281 6.273438 -0.289062 5.921875 -0.15625 C 5.578125 -0.0195312 5.210938 0.078125 4.828125 0.140625 C 4.210938 0.210938 3.609375 0.203125 3.015625 0.109375 C 2.421875 0.015625 1.847656 -0.1875 1.296875 -0.5 C 1.148438 -0.59375 1.007812 -0.691406 0.875 -0.796875 C 0.738281 -0.910156 0.601562 -1.019531 0.46875 -1.125 C 0.382812 -1.3125 0.347656 -1.523438 0.359375 -1.765625 C 0.367188 -2.003906 0.421875 -2.238281 0.515625 -2.46875 C 0.617188 -2.695312 0.765625 -2.890625 0.953125 -3.046875 C 1.140625 -3.210938 1.363281 -3.304688 1.625 -3.328125 C 1.894531 -3.359375 2.203125 -3.285156 2.546875 -3.109375 Z M 2.546875 -3.109375 "/></g></g></g></svg>